<svg xmlns="http://www.w3.org/2000/svg" width="46.786" height="46.785" viewBox="0 0 46.786 46.785">
  <g id="noun-stamp-3282198" transform="translate(-100.261 -30.254)">
    <path id="Path_606" data-name="Path 606" d="M143.629,47.927a10.479,10.479,0,0,1-1.338-2,11.281,11.281,0,0,1-.521-2.493,9.185,9.185,0,0,0-2.183-5.719,9.185,9.185,0,0,0-5.719-2.183,11.281,11.281,0,0,1-2.493-.521,10.484,10.484,0,0,1-2-1.338,9.58,9.58,0,0,0-5.719-2.564,9.581,9.581,0,0,0-5.719,2.564,10.48,10.48,0,0,1-2,1.338,11.282,11.282,0,0,1-2.493.521,9.184,9.184,0,0,0-5.719,2.183,9.184,9.184,0,0,0-2.183,5.719,11.281,11.281,0,0,1-.521,2.493,10.483,10.483,0,0,1-1.338,2,9.58,9.58,0,0,0-2.564,5.719,9.581,9.581,0,0,0,2.564,5.719,10.479,10.479,0,0,1,1.338,2,11.282,11.282,0,0,1,.521,2.493,9.185,9.185,0,0,0,2.183,5.719,9.184,9.184,0,0,0,5.719,2.183,11.28,11.28,0,0,1,2.493.521,10.484,10.484,0,0,1,2,1.338,9.58,9.58,0,0,0,5.719,2.564,9.581,9.581,0,0,0,5.719-2.564,10.479,10.479,0,0,1,2-1.338,11.281,11.281,0,0,1,2.493-.521,9.185,9.185,0,0,0,5.719-2.183,9.185,9.185,0,0,0,2.183-5.719,11.28,11.28,0,0,1,.521-2.493,10.483,10.483,0,0,1,1.338-2,9.58,9.58,0,0,0,2.564-5.719A9.581,9.581,0,0,0,143.629,47.927Zm-3.761,8.537a13.669,13.669,0,0,0-1.958,3.085,13.608,13.608,0,0,0-.831,3.677,6.313,6.313,0,0,1-.845,3,6.313,6.313,0,0,1-3,.845,10.868,10.868,0,0,0-6.762,2.789,6.137,6.137,0,0,1-2.817,1.578,6.137,6.137,0,0,1-2.817-1.578,10.869,10.869,0,0,0-6.762-2.789,6.313,6.313,0,0,1-3-.845,6.313,6.313,0,0,1-.845-3,13.607,13.607,0,0,0-.831-3.677,13.671,13.671,0,0,0-1.958-3.085,6.137,6.137,0,0,1-1.578-2.817,6.137,6.137,0,0,1,1.578-2.817,13.669,13.669,0,0,0,1.958-3.085,13.607,13.607,0,0,0,.831-3.677,6.313,6.313,0,0,1,.845-3,6.313,6.313,0,0,1,3-.845,13.608,13.608,0,0,0,3.677-.831,13.671,13.671,0,0,0,3.085-1.958,6.137,6.137,0,0,1,2.817-1.578,6.137,6.137,0,0,1,2.817,1.578,13.669,13.669,0,0,0,3.085,1.958,13.608,13.608,0,0,0,3.677.831,6.313,6.313,0,0,1,3,.845,6.313,6.313,0,0,1,.845,3,13.608,13.608,0,0,0,.831,3.677,13.672,13.672,0,0,0,1.958,3.085,6.137,6.137,0,0,1,1.578,2.817,6.137,6.137,0,0,1-1.578,2.817Z" stroke="#fec007" stroke-width="1.7"/>
    <path id="Path_607" data-name="Path 607" d="M337.422,253.869a2.381,2.381,0,0,0-2.381,2.367,7.044,7.044,0,0,1-7.114,7.114,2.381,2.381,0,0,0,0,4.747,11.875,11.875,0,0,0,11.861-11.861,2.366,2.366,0,0,0-2.367-2.367Z" transform="translate(-204.274 -202.589)" stroke="#fec007" stroke-width="1.7"/>
    <path id="Path_608" data-name="Path 608" d="M233.249,151.394a2.366,2.366,0,0,0-2.367-2.367,11.875,11.875,0,0,0-11.861,11.861,2.409,2.409,0,0,0,4.818,0,7.044,7.044,0,0,1,7.043-7.043,2.38,2.38,0,0,0,2.367-2.451Z" transform="translate(-107.23 -107.242)" stroke="#fec007" stroke-width="1.7"/>
  </g>
</svg>
