<svg id="Layer_1" data-name="Layer 1" xmlns="http://www.w3.org/2000/svg" viewBox="0 0 422.11 57.54"><defs><style>.cls-1{fill:#fff;}</style></defs><path class="cls-1" d="M181.49,259.27a7.08,7.08,0,0,1,4.95,1.86,5.81,5.81,0,0,1,2,4.49V267h-5.94v-.37a2.34,2.34,0,0,0-.8-1.81,2.62,2.62,0,0,0-2-.73h-13a2.81,2.81,0,0,0-2,.75,2.26,2.26,0,0,0-.81,1.79v7a2.39,2.39,0,0,0,.83,1.81,3,3,0,0,0,2,.73h13a3.09,3.09,0,0,0,2-.75,2.4,2.4,0,0,0,.8-1.79v-.34h5.94v1.37a5.81,5.81,0,0,1-2,4.49,7.08,7.08,0,0,1-4.95,1.86H165a7.1,7.1,0,0,1-5-1.86,5.84,5.84,0,0,1-2-4.49v-9.05a5.83,5.83,0,0,1,2.05-4.49,7.07,7.07,0,0,1,4.93-1.86Z" transform="translate(-94.94 -241.24)"/><path class="cls-1" d="M213.54,259.27a7.76,7.76,0,0,1,5.4,2,6.41,6.41,0,0,1,2.24,4.91,6.32,6.32,0,0,1-1.94,4.6,8,8,0,0,1-4.83,2.24l7.08,8h-6.9l-6.54-7.89h-9.92V281h-5.94V259.27Zm-15.41,9.07H213a2.31,2.31,0,0,0,1.67-.6,2,2,0,0,0,.65-1.53,1.87,1.87,0,0,0-.65-1.52,2.11,2.11,0,0,0-1.67-.59H198.13Z" transform="translate(-94.94 -241.24)"/><path class="cls-1" d="M233,259.27l9.22,9.16,9.22-9.16h8.76l-15,13.88V281h-5.94v-7.87l-15-13.88Z" transform="translate(-94.94 -241.24)"/><path class="cls-1" d="M284.43,259.27a8.66,8.66,0,0,1,4.12,1,7.77,7.77,0,0,1,3,2.73,7,7,0,0,1,0,7.53,7.7,7.7,0,0,1-3,2.71,8.65,8.65,0,0,1-4.12,1H268.9V281H263V259.27ZM268.9,269.42h15a3.32,3.32,0,0,0,2.1-.75,2.48,2.48,0,0,0,.82-1.91,2.39,2.39,0,0,0-.82-1.9,2.88,2.88,0,0,0-2.1-.75h-15Z" transform="translate(-94.94 -241.24)"/><path class="cls-1" d="M317.45,259.27a7.22,7.22,0,0,1,5.08,1.92,6.06,6.06,0,0,1,2.09,4.65v.1h-5.77c0-.06,0-.1,0-.1a1.53,1.53,0,0,0-.54-1.19,1.62,1.62,0,0,0-1.32-.47H304.64a1.62,1.62,0,0,0-1.3.49,1.53,1.53,0,0,0-.53,1.17,1.6,1.6,0,0,0,.54,1.19,1.81,1.81,0,0,0,1.29.5l6.76,0q4.58,0,6.75,0a7.36,7.36,0,0,1,5.24,2,6,6,0,0,1,2.15,4.78,6.1,6.1,0,0,1-2.17,4.78,7.42,7.42,0,0,1-5.22,2h-14.4a7.59,7.59,0,0,1-5.24-2,6.22,6.22,0,0,1-2.16-4.78h5.56v0a1.78,1.78,0,0,0,.62,1.37,2.09,2.09,0,0,0,1.47.57h13.59a2.48,2.48,0,0,0,1.49-.55,1.81,1.81,0,0,0,.61-1.35,1.78,1.78,0,0,0-.62-1.37,2.13,2.13,0,0,0-1.48-.57h-14a7.3,7.3,0,0,1-5.07-1.92,6.1,6.1,0,0,1-2.1-4.64,5.86,5.86,0,0,1,2.1-4.58,7.66,7.66,0,0,1,5.07-2Z" transform="translate(-94.94 -241.24)"/><path class="cls-1" d="M357.76,259.27v4.84H346.49V281h-5.94V264.11H329.29v-4.84Z" transform="translate(-94.94 -241.24)"/><path class="cls-1" d="M375.46,259.27,389.27,281h-6.4l-3-4.76H365.16l-3,4.76h-6.39l13.82-21.75Zm-7.38,12.38h8.86l-4.42-7Z" transform="translate(-94.94 -241.24)"/><path class="cls-1" d="M413.37,259.27a7.76,7.76,0,0,1,5.4,2,6.41,6.41,0,0,1,2.24,4.91,6.32,6.32,0,0,1-1.94,4.6,8,8,0,0,1-4.83,2.24l7.08,8h-6.9l-6.54-7.89H398V281H392V259.27ZM398,268.34H412.8a2.31,2.31,0,0,0,1.67-.6,2,2,0,0,0,.65-1.53,1.87,1.87,0,0,0-.65-1.52,2.11,2.11,0,0,0-1.67-.59H398Z" transform="translate(-94.94 -241.24)"/><path class="cls-1" d="M453.49,259.27v4.84H442.22V281h-5.94V264.11H425v-4.84Z" transform="translate(-94.94 -241.24)"/><path class="cls-1" d="M484.05,259.27v4.84H463.13v3.56h18.13v4.76H463.13v3.75h20.92V281H457.19V259.27Z" transform="translate(-94.94 -241.24)"/><path class="cls-1" d="M509.1,259.27a7.76,7.76,0,0,1,5.4,2,6.41,6.41,0,0,1,2.24,4.91,6.32,6.32,0,0,1-1.94,4.6,8,8,0,0,1-4.82,2.24l7.08,8h-6.91l-6.54-7.89h-9.92V281h-5.94V259.27Zm-15.41,9.07h14.84a2.29,2.29,0,0,0,1.67-.6,2,2,0,0,0,.65-1.53,1.87,1.87,0,0,0-.65-1.52,2.1,2.1,0,0,0-1.67-.59H493.69Z" transform="translate(-94.94 -241.24)"/><path class="cls-1" d="M145.32,256.48a2,2,0,0,0-.61-1.27,2.61,2.61,0,0,0-.74-.54l-22.56-13-.62-.3a2.15,2.15,0,0,0-1.28,0,20.27,20.27,0,0,0-1.94,1l-21.1,12.22s-1.43.7-1.53,1.69v27.3s-.09,1,1.29,1.81,23.12,13.3,23.12,13.3a2.61,2.61,0,0,0,1.51,0c1.17-.61,23.42-13.51,23.42-13.51a2.23,2.23,0,0,0,1-1.63C145.35,282.38,145.32,256.48,145.32,256.48Zm-47.66.68,22.51-13.11,18.43,10.72-15.3,5.53L119.8,257H103.39l15.29,13.47.09.09-3.08,12.27-2.85-4.42,1.69-6.37L97.66,257.19ZM120,295.89,97.69,283l0-21.47,12.69,11.57-1.66,5.86,8.52,12.59,4.88-19.68,11.76-4.1-2.2,4.75-6.58,2.35ZM142.55,283l-18.27,10.44,3.68-15.9,6.85-2.66,5.54-13.24-18.72,6.75L111.54,260l5.89-.12,5.24,4.53L142.49,257l.06,0Z" transform="translate(-94.94 -241.24)"/><polygon class="cls-1" points="23.93 29.22 23.91 29.31 23.84 29.29 23.76 29.26 23.74 29.24 23.93 29.22"/><polygon class="cls-1" points="23.93 29.22 23.91 29.31 23.89 29.39 23.83 29.33 23.84 29.29 23.93 29.22"/></svg>