<svg id="Layer_1" data-name="Layer 1" xmlns="http://www.w3.org/2000/svg" viewBox="0 0 50.39 57.54"><defs><style>.cls-1{fill:#15a2b9;}.cls-2{fill:#fff;}</style></defs><path class="cls-1" d="M145.32,256.48a2,2,0,0,0-.61-1.27,2.61,2.61,0,0,0-.74-.54l-22.56-13-.62-.3a2.15,2.15,0,0,0-1.28,0,20.27,20.27,0,0,0-1.94,1l-21.1,12.22s-1.43.7-1.53,1.69v27.3s-.09,1,1.29,1.81,23.12,13.3,23.12,13.3a2.61,2.61,0,0,0,1.51,0c1.17-.61,23.42-13.51,23.42-13.51a2.23,2.23,0,0,0,1-1.63C145.35,282.38,145.32,256.48,145.32,256.48Zm-47.66.68,22.51-13.11,18.43,10.72-15.3,5.53L119.8,257H103.39l15.29,13.47.09.09-3.08,12.27-2.85-4.42,1.69-6.37L97.66,257.19ZM120,295.89,97.69,283l0-21.47,12.69,11.57-1.66,5.86,8.52,12.59,4.88-19.68,11.76-4.1-2.2,4.75-6.58,2.35ZM142.55,283l-18.27,10.44,3.68-15.9,6.85-2.66,5.54-13.24-18.72,6.75L111.54,260l5.89-.12,5.24,4.53L142.49,257l.06,0Z" transform="translate(-94.94 -241.24)"/><polygon class="cls-2" points="23.93 29.22 23.91 29.31 23.84 29.29 23.76 29.26 23.74 29.24 23.93 29.22"/><polygon class="cls-2" points="23.93 29.22 23.91 29.31 23.89 29.39 23.83 29.33 23.84 29.29 23.93 29.22"/></svg>