<svg xmlns="http://www.w3.org/2000/svg" width="43.229" height="43.229" viewBox="0 0 43.229 43.229">
  <path id="noun-dashboard-4375730" d="M175.247,94.4H162.154a4.476,4.476,0,0,0-4.476,4.477v6.377a4.477,4.477,0,0,0,4.476,4.477h13.092a4.476,4.476,0,0,0,4.477-4.477V98.875a4.476,4.476,0,0,0-4.477-4.477Zm2.238,10.854a2.238,2.238,0,0,1-2.238,2.238H162.154a2.238,2.238,0,0,1-2.238-2.238V98.875a2.239,2.239,0,0,1,2.238-2.239h13.092a2.238,2.238,0,0,1,2.238,2.239Zm-27.2-19.807h-8.616a4.476,4.476,0,0,0-4.477,4.477v15.331a4.476,4.476,0,0,0,4.477,4.477h8.616a4.477,4.477,0,0,0,4.477-4.477V89.921a4.477,4.477,0,0,0-4.477-4.477Zm2.238,19.807a2.238,2.238,0,0,1-2.238,2.238h-8.616a2.238,2.238,0,0,1-2.238-2.238V89.921a2.238,2.238,0,0,1,2.238-2.238h8.616a2.238,2.238,0,0,1,2.238,2.238ZM175.246,67.2H162.154a4.477,4.477,0,0,0-4.476,4.477V87.008a4.477,4.477,0,0,0,4.476,4.477h13.092a4.476,4.476,0,0,0,4.477-4.477V71.677a4.476,4.476,0,0,0-4.477-4.477Zm2.238,19.807a2.238,2.238,0,0,1-2.238,2.238H162.154a2.238,2.238,0,0,1-2.238-2.238V71.677a2.238,2.238,0,0,1,2.238-2.238h13.092a2.238,2.238,0,0,1,2.238,2.238ZM150.286,67.2h-8.616a4.477,4.477,0,0,0-4.477,4.477v6.377a4.477,4.477,0,0,0,4.477,4.477h8.616a4.477,4.477,0,0,0,4.477-4.477V71.677a4.477,4.477,0,0,0-4.477-4.477Zm2.238,10.854a2.238,2.238,0,0,1-2.238,2.239h-8.616a2.238,2.238,0,0,1-2.238-2.239V71.677a2.238,2.238,0,0,1,2.238-2.238h8.616a2.238,2.238,0,0,1,2.238,2.238Z" transform="translate(-136.844 -66.85)" stroke="#000" stroke-width="0.7"/>
</svg>
