<svg xmlns="http://www.w3.org/2000/svg" width="22.154" height="16.879" viewBox="0 0 22.154 16.879">
  <path id="_8546766_discord_icon" data-name="8546766_discord_icon" d="M44.783,33.425a.057.057,0,0,0-.029-.026A18.276,18.276,0,0,0,40.245,32a.068.068,0,0,0-.072.034,12.714,12.714,0,0,0-.561,1.153,16.873,16.873,0,0,0-5.065,0,11.662,11.662,0,0,0-.57-1.153A.071.071,0,0,0,33.9,32a18.224,18.224,0,0,0-4.509,1.4.065.065,0,0,0-.03.025,18.684,18.684,0,0,0-3.273,12.6.076.076,0,0,0,.029.052,18.374,18.374,0,0,0,5.532,2.8.072.072,0,0,0,.078-.025,13.119,13.119,0,0,0,1.132-1.84.07.07,0,0,0-.038-.1,12.1,12.1,0,0,1-1.728-.823.071.071,0,0,1-.007-.118c.116-.087.232-.177.343-.269a.069.069,0,0,1,.072-.01,13.106,13.106,0,0,0,11.133,0,.068.068,0,0,1,.072.009c.111.091.227.183.344.27a.071.071,0,0,1-.006.118,11.356,11.356,0,0,1-1.729.822.071.071,0,0,0-.038.1,14.734,14.734,0,0,0,1.131,1.839.07.07,0,0,0,.078.026,18.313,18.313,0,0,0,5.541-2.8.071.071,0,0,0,.029-.051A18.56,18.56,0,0,0,44.783,33.425ZM33.4,43.513a2.247,2.247,0,0,1,0-4.464,2.247,2.247,0,0,1,0,4.464Zm7.361,0a2.247,2.247,0,0,1,0-4.464,2.247,2.247,0,0,1,0,4.464Z" transform="translate(-26 -31.999)"/>
</svg>
