<svg xmlns="http://www.w3.org/2000/svg" width="42.058" height="45.108" viewBox="0 0 42.058 45.108">
  <g id="noun-document-1000973" transform="translate(-165.62 -31.164)">
    <path id="Path_611" data-name="Path 611" d="M366.146,32.464v8.124a2.321,2.321,0,0,0,2.321,2.321h8.124" transform="translate(-170.212)" fill="none" stroke="#000" stroke-miterlimit="10" stroke-width="2.6"/>
    <path id="Path_612" data-name="Path 612" d="M99.241,74.952A2.126,2.126,0,0,1,96.92,73.1V34.316a2.126,2.126,0,0,1,2.321-1.849h25.73a2.652,2.652,0,0,1,1.641.542l9.085,7.239a1.683,1.683,0,0,1,.68,1.308V72.3c0,1.479-1.506,2.679-3.363,2.677Z" transform="translate(70 -0.002)" fill="none" stroke="#000" stroke-miterlimit="10" stroke-width="2.6"/>
    <path id="Path_613" data-name="Path 613" d="M150.766,161.535h9.284" transform="translate(21.957 -118.988)" fill="none" stroke="#000" stroke-miterlimit="10" stroke-width="2.6"/>
    <path id="Path_615" data-name="Path 615" d="M150.766,226.149h27.853" transform="translate(21.957 -178.054)" fill="none" stroke="#000" stroke-miterlimit="10" stroke-width="2.6"/>
    <path id="Path_616" data-name="Path 616" d="M331.192,379.191h-5.8a2.321,2.321,0,0,1-2.321-2.321v-8.409a2.321,2.321,0,0,1,2.321-2.321h5.8a2.321,2.321,0,0,1,2.321,2.321v8.409a2.322,2.322,0,0,1-2.322,2.321Z" transform="translate(-133.777 -310.559)" fill="none" stroke="#000" stroke-miterlimit="10" stroke-width="2.6"/>
  </g>
</svg>
