<svg xmlns="http://www.w3.org/2000/svg" width="40.18" height="40.18" viewBox="0 0 40.18 40.18">
  <path id="noun-explore-4184010" d="M124.992,35a19.99,19.99,0,1,0,9.995,2.678A19.991,19.991,0,0,0,124.992,35Zm0,37.125A17.135,17.135,0,1,1,137.108,67.1,17.134,17.134,0,0,1,124.992,72.123Zm8.453-27.5L121.322,50.7a1.544,1.544,0,0,0-.643.643l-6.054,12.094a1.433,1.433,0,0,0,1.913,1.913l12.123-6.083a1.544,1.544,0,0,0,.643-.643l6.054-12.122a1.413,1.413,0,0,0-1.913-1.885Zm-6.482,12.337-7.868,3.927,3.927-7.868,7.868-3.927Z" transform="translate(-104.902 -34.898)" stroke="#000" stroke-width="0.2"/>
</svg>
