<svg xmlns="http://www.w3.org/2000/svg" width="39.98" height="38.905" viewBox="0 0 39.98 38.905">
  <path id="Path_609" data-name="Path 609" d="M191.934,92.52H162.723a5.39,5.39,0,0,0-5.384,5.384v19.438a5.39,5.39,0,0,0,5.384,5.384h14.051l9.3,8.328a1.45,1.45,0,0,0,.969.371h.012a1.452,1.452,0,0,0,1.453-1.453,1.431,1.431,0,0,0-.024-.265l-.39-6.98h3.839a5.39,5.39,0,0,0,5.384-5.384V97.9a5.39,5.39,0,0,0-5.384-5.383Zm2.479,24.821a2.482,2.482,0,0,1-2.479,2.479h-5.375a1.453,1.453,0,0,0-1.45,1.533l.291,5.194-7.1-6.356a1.451,1.451,0,0,0-.969-.371H162.722a2.482,2.482,0,0,1-2.479-2.479V97.9a2.482,2.482,0,0,1,2.479-2.479h29.212a2.482,2.482,0,0,1,2.479,2.479Z" transform="translate(-157.339 -92.52)"/>
</svg>
