<svg xmlns="http://www.w3.org/2000/svg" width="42.002" height="31.516" viewBox="0 0 42.002 31.516">
  <path id="Path_610" data-name="Path 610" d="M138.5,118v-.225a14.363,14.363,0,0,0-.45-3.015,3.275,3.275,0,0,0-1.35-1.8,21.616,21.616,0,0,0-2.7-1.08,28.973,28.973,0,0,1-3.33-1.35c-.4-.225-.765-1.395-.81-1.8,0-.045.09-.135.315-.36a8,8,0,0,0,1.665-3.015c.4-1.575.765-4.815-.72-6.8a4.8,4.8,0,0,0-3.915-1.8h-.18a4.8,4.8,0,0,0-3.915,1.8c-1.485,1.98-1.17,5.22-.72,6.8a8,8,0,0,0,1.665,3.015c.045.09.27.27.315.36a2.47,2.47,0,0,1-.81,1.8,32.907,32.907,0,0,1-3.285,1.35h-.045c-.315.135-.585.225-.855.315a12.3,12.3,0,0,1-1.935-.855,4.141,4.141,0,0,1-1.125-2.52c0-.045.045-.135.4-.54a10.079,10.079,0,0,0,2.115-3.915c.54-2.07.99-6.255-.945-8.82a6.01,6.01,0,0,0-5.04-2.3h-.225a6.163,6.163,0,0,0-5.04,2.34c-1.935,2.565-1.485,6.75-.945,8.82a10.477,10.477,0,0,0,2.115,3.87,4.2,4.2,0,0,1,.4.54,3.429,3.429,0,0,1-1.125,2.52c-.72.4-2.655,1.125-4.41,1.8a32.187,32.187,0,0,0-3.465,1.395,4.165,4.165,0,0,0-1.71,2.3c-.225.945-.36,3.105-.45,3.96v.225l.18.18c.5.5,3.06,2.07,14.626,2.07,11.476,0,14.086-1.62,14.626-2.115l.18-.18v-.225c0-.27-.045-.585-.09-.99,8.415-.045,10.4-1.26,10.8-1.62Zm-25.7,4.23c-10.171,0-13.051-1.26-13.771-1.665a18.081,18.081,0,0,1,.5-3.42,3.411,3.411,0,0,1,1.3-1.8c.27-.18,2.07-.855,3.285-1.3a39.417,39.417,0,0,0,4.545-1.845c.945-.54,1.98-2.655,1.575-3.735a2.2,2.2,0,0,0-.63-.9,9.042,9.042,0,0,1-1.89-3.465c-.5-1.89-.9-5.67.765-7.965a5.055,5.055,0,0,1,4.23-1.89h.18a5.182,5.182,0,0,1,4.23,1.89c1.665,2.25,1.26,6.075.765,7.965a9.68,9.68,0,0,1-1.89,3.465c-.5.54-.675.81-.72,1.215,0,.72.54,2.835,1.62,3.465a7.613,7.613,0,0,0,1.035.5q.607.27,1.35.54c.675.27,1.44.54,2.16.81,1.215.45,3.015,1.125,3.285,1.3a3.078,3.078,0,0,1,1.3,1.8,8.573,8.573,0,0,1,.315,1.62c.045.315.09.675.135.99.045.27.045.54.09.81-.719.36-3.6,1.62-13.771,1.62Zm14.626-3.465a9.043,9.043,0,0,0-.4-1.935,3.969,3.969,0,0,0-1.71-2.3,29.155,29.155,0,0,0-3.51-1.395c-.36-.135-.72-.27-1.035-.4a32.872,32.872,0,0,0,3.285-1.35,3.185,3.185,0,0,0,1.26-2.97,2.954,2.954,0,0,0-.5-.72,6.926,6.926,0,0,1-1.395-2.565c-.36-1.395-.675-4.275.585-5.94a3.81,3.81,0,0,1,3.15-1.395h.09a3.809,3.809,0,0,1,3.15,1.395c1.26,1.665.945,4.545.585,5.94a6.971,6.971,0,0,1-1.44,2.565c-.36.4-.54.675-.54.99a3.669,3.669,0,0,0,1.3,2.7,25.6,25.6,0,0,0,3.465,1.395c.855.315,2.3.855,2.475.99a2.352,2.352,0,0,1,.945,1.3,13.48,13.48,0,0,1,.36,2.475c-.63.315-2.88,1.17-10.125,1.215Z" transform="translate(-97.252 -92.495)" stroke="#000" stroke-width="1.5"/>
</svg>
