<svg xmlns="http://www.w3.org/2000/svg" width="21.262" height="16.879" viewBox="0 0 21.262 16.879">
  <path id="Medium" d="M4.521,7.444a.823.823,0,0,0-.268-.695L2.268,4.357V4H8.433L13.2,14.449,17.386,4h5.876v.357l-1.7,1.627a.5.5,0,0,0-.189.477V18.419a.5.5,0,0,0,.189.476l1.658,1.627v.357H14.884v-.357L16.6,18.855c.168-.168.168-.218.168-.476V8.714L12,20.84h-.645L5.792,8.714v8.127a1.121,1.121,0,0,0,.307.932l2.233,2.709v.358H2v-.358l2.233-2.709a1.08,1.08,0,0,0,.288-.932v-9.4Z" transform="translate(-2 -4)" fill-rule="evenodd"/>
</svg>
