<svg xmlns="http://www.w3.org/2000/svg" xmlns:xlink="http://www.w3.org/1999/xlink" width="421" height="542" viewBox="0 0 421 542">
  <defs>
    <clipPath id="clip-path">
      <rect id="Rectangle_217" data-name="Rectangle 217" width="421" height="542" rx="5" transform="translate(-10652 1010)" fill="#b79e16"/>
    </clipPath>
  </defs>
  <g id="Mask_Group_7" data-name="Mask Group 7" transform="translate(10652 -1010)" clip-path="url(#clip-path)">
    <g id="Group_374" data-name="Group 374" transform="translate(-10685.159 852.565)">
      <rect id="Rectangle_216" data-name="Rectangle 216" width="470" height="541" transform="translate(33.159 157.435)" fill="#fec007"/>
      <line id="Line_49" data-name="Line 49" x2="298.894" y2="479.089" transform="translate(-3.735 225.245)" fill="none" stroke="#e1a901" stroke-width="1"/>
      <line id="Line_50" data-name="Line 50" x2="298.894" y2="479.089" transform="translate(-9.944 249.107)" fill="none" stroke="#e1a901" stroke-width="1"/>
      <line id="Line_51" data-name="Line 51" x2="298.894" y2="479.089" transform="translate(-18 270.969)" fill="none" stroke="#e1a901" stroke-width="1"/>
      <g id="Ellipse_80" data-name="Ellipse 80" transform="translate(315.159 41.435)" fill="none" stroke="#dba70b" stroke-width="1">
        <ellipse cx="84" cy="85.5" rx="84" ry="85.5" stroke="none"/>
        <ellipse cx="84" cy="85.5" rx="83.5" ry="85" fill="none"/>
      </g>
      <ellipse id="Ellipse_81" data-name="Ellipse 81" cx="18.5" cy="19.5" rx="18.5" ry="19.5" transform="translate(367.159 188.435)" fill="#ffcd37" opacity="0.76"/>
      <ellipse id="Ellipse_82" data-name="Ellipse 82" cx="19" cy="19.5" rx="19" ry="19.5" transform="translate(390.159 188.435)" fill="#ffcd37" opacity="0.59"/>
      <g id="Path_602" data-name="Path 602" transform="translate(274.159 0.435)" fill="none">
        <path d="M125,0c69.036,0,125,56.636,125,126.5S194.036,253,125,253,0,196.364,0,126.5,55.964,0,125,0Z" stroke="none"/>
        <path d="M 125 1 C 116.5868988037109 1 108.1793670654297 1.857696533203125 100.0109405517578 3.549270629882812 C 92.05046081542969 5.197738647460938 84.22030639648438 7.65753173828125 76.73786926269531 10.86033630371094 C 69.39083862304688 14.005126953125 62.30450439453125 17.89762878417969 55.67570495605469 22.42973327636719 C 49.10940551757812 26.9190673828125 42.93463134765625 32.07485961914062 37.32296752929688 37.75386047363281 C 31.71110534667969 43.43310546875 26.61616516113281 49.68229675292969 22.17973327636719 56.32786560058594 C 17.70075988769531 63.03717041015625 13.85383605957031 70.20967102050781 10.74577331542969 77.64613342285156 C 7.58026123046875 85.22006225585938 5.149063110351562 93.14607238769531 3.519729614257812 101.2040405273438 C 1.847763061523438 109.4727630615234 1 117.9835662841797 1 126.5 C 1 135.0164337158203 1.847763061523438 143.5272369384766 3.519729614257812 151.7959594726562 C 5.149063110351562 159.8539428710938 7.58026123046875 167.7799377441406 10.74577331542969 175.3538665771484 C 13.85383605957031 182.7903442382812 17.70075988769531 189.9628295898438 22.17973327636719 196.6721343994141 C 26.61616516113281 203.3177032470703 31.71110534667969 209.56689453125 37.32296752929688 215.2461242675781 C 42.93463134765625 220.9251403808594 49.10940551757812 226.0809326171875 55.67570495605469 230.5702667236328 C 62.30450439453125 235.1023712158203 69.39083862304688 238.994873046875 76.73786926269531 242.1396636962891 C 84.22030639648438 245.3424682617188 92.05046081542969 247.8022613525391 100.0109405517578 249.4507293701172 C 108.1793670654297 251.1423034667969 116.5868988037109 252 125 252 C 133.4131011962891 252 141.8206329345703 251.1423034667969 149.9890747070312 249.4507293701172 C 157.9494934082031 247.8022613525391 165.7796936035156 245.3424682617188 173.2621307373047 242.1396636962891 C 180.609130859375 238.994873046875 187.6954650878906 235.1023712158203 194.3242950439453 230.5702667236328 C 200.8905944824219 226.0809326171875 207.0653686523438 220.9251403808594 212.6770324707031 215.2461242675781 C 218.2888946533203 209.56689453125 223.3838348388672 203.3177032470703 227.8202667236328 196.6721343994141 C 232.2992248535156 189.9628295898438 236.1461639404297 182.7903442382812 239.2542266845703 175.3538665771484 C 242.4197387695312 167.7799377441406 244.8509368896484 159.8539428710938 246.4802703857422 151.7959594726562 C 248.1522369384766 143.5272369384766 249 135.0164337158203 249 126.5 C 249 117.9835662841797 248.1522369384766 109.4727630615234 246.4802703857422 101.2040405273438 C 244.8509368896484 93.14607238769531 242.4197387695312 85.22006225585938 239.2542266845703 77.64613342285156 C 236.1461639404297 70.20967102050781 232.2992248535156 63.03717041015625 227.8202667236328 56.32786560058594 C 223.3838348388672 49.68229675292969 218.2888946533203 43.43310546875 212.6770324707031 37.75386047363281 C 207.0653686523438 32.07485961914062 200.8905944824219 26.9190673828125 194.3242950439453 22.42973327636719 C 187.6954650878906 17.89762878417969 180.609130859375 14.005126953125 173.2621307373047 10.86033630371094 C 165.7796936035156 7.65753173828125 157.9494934082031 5.197738647460938 149.9890747070312 3.549270629882812 C 141.8206329345703 1.857696533203125 133.4131011962891 1 125 1 M 125 0 C 194.0355682373047 0 250 56.63600158691406 250 126.5 C 250 196.3639984130859 194.0355682373047 253 125 253 C 55.96440124511719 253 0 196.3639984130859 0 126.5 C 0 56.63600158691406 55.96440124511719 0 125 0 Z" stroke="none" fill="#dba70b"/>
      </g>
      <path id="Path_603" data-name="Path 603" d="M15.167.167,106.83,1.178a15.578,15.578,0,0,1,15.335,15.335l1.011,91.663a14.77,14.77,0,0,1-15,15l-91.663-1.011A15.578,15.578,0,0,1,1.178,106.83L.167,15.167A14.77,14.77,0,0,1,15.167.167Z" transform="translate(430.159 358.693) rotate(45)" fill="#ffcf3e"/>
    </g>
  </g>
</svg>
