<svg xmlns="http://www.w3.org/2000/svg" width="22.605" height="18.839" viewBox="0 0 22.605 18.839">
  <path id="Reddit" d="M22.606,11.877a2.5,2.5,0,0,0-4.236-1.789A12.9,12.9,0,0,0,11.8,8.161l1.4-4.4,3.783.886-.006.055a2.064,2.064,0,1,0,.144-.739l-4.077-.956a.349.349,0,0,0-.414.235l-1.558,4.9A13.051,13.051,0,0,0,4.2,10.055,2.488,2.488,0,1,0,1.24,14.016a4.442,4.442,0,0,0-.081.807c0,3.684,4.529,6.681,10.1,6.681s10.1-3,10.1-6.681a4.474,4.474,0,0,0-.071-.763,2.48,2.48,0,0,0,1.323-2.183ZM6.382,13.587a1.49,1.49,0,1,1,1.49,1.483A1.489,1.489,0,0,1,6.382,13.587Zm8.535,4.4a4.913,4.913,0,0,1-3.6,1.111l-.012,0-.012,0a4.91,4.91,0,0,1-3.6-1.111.349.349,0,0,1,.5-.493,4.282,4.282,0,0,0,3.106.905l.012,0,.012,0a4.282,4.282,0,0,0,3.106-.906.35.35,0,1,1,.5.494Zm-.178-2.915a1.483,1.483,0,1,1,1.489-1.483A1.488,1.488,0,0,1,14.739,15.07Z" transform="translate(0 -2.665)"/>
</svg>
