<svg xmlns="http://www.w3.org/2000/svg" width="40.437" height="37.819" viewBox="0 0 40.437 37.819">
  <path id="noun-app-2189258" d="M157.744,93.129a3.72,3.72,0,0,0-3.753,3.671v23.675a3.72,3.72,0,0,0,3.753,3.671h2.443v1.63a3.715,3.715,0,0,0,3.748,3.671h25.239a3.72,3.72,0,0,0,3.753-3.671V102.1a3.716,3.716,0,0,0-3.753-3.667h-2.439V96.8a3.719,3.719,0,0,0-3.752-3.671Zm0,1.238h25.239a2.442,2.442,0,0,1,2.488,2.433v23.675a2.443,2.443,0,0,1-2.488,2.434H157.744a2.444,2.444,0,0,1-2.489-2.434V96.8A2.443,2.443,0,0,1,157.744,94.367Zm28.991,5.3h2.439a2.443,2.443,0,0,1,2.489,2.433v23.679a2.444,2.444,0,0,1-2.489,2.434H163.936a2.443,2.443,0,0,1-2.488-2.434v-1.63h21.535a3.719,3.719,0,0,0,3.752-3.671Z" transform="translate(-153.241 -92.379)" stroke="#000" stroke-width="1.5"/>
</svg>
