<svg xmlns="http://www.w3.org/2000/svg" width="18.554" height="16.879" viewBox="0 0 18.554 16.879">
  <path id="telegram" d="M21.2,6.234a1.293,1.293,0,0,0-1.328-.1h0c-.541.217-15.3,6.548-15.9,6.807-.109.038-1.064.394-.965,1.187a1.435,1.435,0,0,0,.949,1.046l3.753,1.285c.249.829,1.167,3.886,1.37,4.54.127.407.333.942.695,1.052a.862.862,0,0,0,.837-.15L12.9,19.773l3.7,2.888.088.053a1.783,1.783,0,0,0,.722.167,1.337,1.337,0,0,0,.511-.1,1.548,1.548,0,0,0,.8-.817L21.5,7.585A1.275,1.275,0,0,0,21.2,6.234ZM11.017,16.973,9.751,20.349l-1.266-4.22,9.706-7.174Z" transform="translate(-2.999 -6.002)"/>
</svg>
