<svg id="twitter" xmlns="http://www.w3.org/2000/svg" width="20.687" height="16.811" viewBox="0 0 20.687 16.811">
  <path id="iconmonstr-twitter-1" d="M20.687,4.238a8.474,8.474,0,0,1-2.438.668,4.251,4.251,0,0,0,1.866-2.348,8.5,8.5,0,0,1-2.7,1.03,4.247,4.247,0,0,0-7.233,3.87A12.049,12.049,0,0,1,1.44,3.025,4.25,4.25,0,0,0,2.753,8.691,4.226,4.226,0,0,1,.832,8.16a4.247,4.247,0,0,0,3.4,4.215,4.254,4.254,0,0,1-1.917.072,4.247,4.247,0,0,0,3.965,2.947A8.534,8.534,0,0,1,0,17.153a12.015,12.015,0,0,0,6.506,1.907A12,12,0,0,0,18.569,6.435a8.641,8.641,0,0,0,2.118-2.2Z" transform="translate(0 -2.248)"/>
</svg>
