<svg xmlns="http://www.w3.org/2000/svg" width="45.079" height="30.3" viewBox="0 0 45.079 30.3">
  <g id="withdraw" transform="translate(2073.651 -1483.332)">
    <path id="Path_617" data-name="Path 617" d="M187.869,105H150.55a3.879,3.879,0,0,0-3.88,3.88v2.586a3.879,3.879,0,0,0,3.88,3.88h3.141v18.661a1.293,1.293,0,0,0,1.293,1.293h28.451a1.293,1.293,0,0,0,1.293-1.293V115.346h3.141a3.879,3.879,0,0,0,3.88-3.88V108.88a3.879,3.879,0,0,0-3.88-3.88Zm-34.179,7.76H150.55a1.293,1.293,0,0,1-1.293-1.293V108.88a1.294,1.294,0,0,1,1.293-1.293h3.141Zm28.452,19.953H156.276V107.586h25.866Zm7.02-21.247a1.294,1.294,0,0,1-1.293,1.293h-3.141v-5.173h3.141a1.294,1.294,0,0,1,1.293,1.293Z" transform="translate(-2220.321 1378.332)"/>
    <path id="Path_618" data-name="Path 618" d="M304.346,220.143a1.014,1.014,0,1,0,0,2.028h2.028v1.014a1.014,1.014,0,0,0,2.028,0v-1.014h2.028a1.014,1.014,0,0,0,1.014-1.014V217.1a1.014,1.014,0,0,0-1.014-1.014h-5.07v-2.028h5.07a1.014,1.014,0,1,0,0-2.028H308.4v-1.014a1.014,1.014,0,1,0-2.028,0v1.014h-2.028a1.014,1.014,0,0,0-1.014,1.014V217.1a1.014,1.014,0,0,0,1.014,1.014h5.07v2.028Z" transform="translate(-2358.5 1280.602)"/>
  </g>
</svg>
